<?xml version="1.0" standalone="no"?>
<!DOCTYPE svg PUBLIC "-//W3C//DTD SVG 20010904//EN"
 "http://www.w3.org/TR/2001/REC-SVG-20010904/DTD/svg10.dtd">
<svg version="1.0" xmlns="http://www.w3.org/2000/svg"
 width="96.000000pt" height="96.000000pt" viewBox="0 0 96.000000 96.000000"
 preserveAspectRatio="xMidYMid meet">
<metadata>
Created by potrace 1.11, written by Peter Selinger 2001-2013
</metadata>
<g transform="translate(0.000000,96.000000) scale(0.100000,-0.100000)"
fill="#000000" stroke="none">
<path d="M260 803 c-30 -11 -52 -39 -80 -99 -26 -55 -32 -61 -57 -59 -46 3
-82 -14 -90 -43 -8 -33 7 -56 43 -62 l29 -5 0 -121 c0 -86 4 -126 14 -138 7
-9 14 -32 16 -51 3 -49 15 -58 85 -60 68 -2 87 8 94 49 3 16 8 31 11 34 7 7
315 9 316 2 1 -3 2 -18 3 -33 4 -41 19 -50 86 -52 72 -2 89 8 94 55 2 19 11
49 19 65 10 21 14 62 13 143 l-1 112 25 0 c32 0 50 17 50 45 0 40 -32 58 -116
64 -7 1 -22 25 -34 55 -41 101 -39 101 -288 103 -119 1 -224 -1 -232 -4z m447
-43 c12 -10 43 -63 69 -117 45 -94 47 -102 48 -190 l1 -93 -31 0 c-21 0 -31
-5 -31 -15 0 -10 10 -15 29 -15 21 0 28 -5 28 -20 0 -11 -3 -20 -7 -21 -56 -8
-74 -4 -79 18 -4 13 -14 27 -23 31 -9 5 -117 8 -239 7 -209 0 -225 -2 -238
-20 -8 -10 -14 -25 -14 -32 0 -9 -9 -12 -27 -9 -16 2 -34 5 -40 5 -7 1 -13 10
-13 21 0 16 7 20 31 20 39 0 34 23 -7 30 l-29 5 0 85 c-1 77 3 92 35 160 20
41 42 90 50 108 23 60 33 62 260 62 191 0 208 -1 227 -20z m-580 -171 c-16
-25 -70 -27 -65 -2 3 17 43 33 65 25 9 -3 9 -8 0 -23z m765 7 c14 -20 8 -26
-21 -26 -26 0 -41 14 -41 41 0 12 53 -1 62 -15z m-194 -290 c7 -4 10 -10 8
-14 -3 -6 -417 -8 -451 -3 -5 1 -3 7 6 14 18 14 415 17 437 3z"/>
<path d="M230 670 c-21 -45 -41 -89 -45 -99 -5 -16 12 -17 295 -17 346 0 315
-14 249 119 l-39 77 -210 0 -210 0 -40 -80z"/>
<path d="M183 515 c-19 -14 -24 -69 -8 -91 14 -20 127 -27 150 -10 20 16 27
69 12 91 -10 13 -29 18 -76 19 -34 1 -69 -3 -78 -9z m124 -28 c12 -7 12 -25 1
-43 -7 -11 -87 -12 -105 -1 -16 10 -9 40 11 47 22 7 79 6 93 -3z"/>
<path d="M635 516 c-19 -16 -26 -71 -10 -93 10 -14 27 -18 79 -18 73 1 85 7
90 52 7 51 -12 66 -83 68 -34 1 -68 -3 -76 -9z m123 -30 c11 -6 11 -31 0 -42
-12 -11 -98 -11 -106 0 -9 15 -10 29 0 42 8 11 88 11 106 0z"/>
</g>
</svg>
